<?xml version="1.0" encoding="UTF-8"?>
<svg width="1200pt" height="1200pt" version="1.1" viewBox="0 0 1200 1200" xmlns="http://www.w3.org/2000/svg">
 <path d="m1074.3 825.24v-325.41c34.977-21.289 58.375-59.762 58.375-103.61 0-2.7891-0.80078-5.5117-2.3008-7.8633l-187.71-293.84c-2.6875-4.1992-7.3242-6.75-12.312-6.75h-690.48c-4.9883 0-9.625 2.5391-12.312 6.75l-187.72 293.84c-1.5 2.3477-2.3008 5.0742-2.3008 7.8594 0 43.852 23.398 82.324 58.375 103.61v485.88c0 8.0625 6.5391 14.613 14.613 14.613h756.55c16.977 64.336 75.648 111.91 145.25 111.91 82.824 0 150.21-67.391 150.21-150.21 0-60.738-36.25-113.12-88.238-136.77zm-53.723-554.49h-870.94l41.863-65.523h787.21zm-772.7-153.76h674.46l37.699 59.023h-749.87zm-181.02 283.35 64.125-100.36h908.27l64.125 100.36c-2.1758 48.812-42.562 87.852-91.887 87.852-50.727 0-91.988-41.262-91.988-91.977 0-8.0625-6.5391-14.613-14.613-14.613-8.0625 0-14.613 6.5391-14.613 14.613 0 50.711-41.262 91.977-91.977 91.977-50.711 0-91.977-41.262-91.977-91.977 0-8.0625-6.5391-14.613-14.613-14.613s-14.613 6.5391-14.613 14.613c0 50.711-41.262 91.977-91.977 91.977-50.727 0-91.988-41.262-91.988-91.977 0-8.0625-6.5391-14.613-14.613-14.613-8.0625 0-14.613 6.5391-14.613 14.613 0 50.711-41.262 91.977-91.977 91.977-50.711 0-91.977-41.262-91.977-91.977 0-8.0625-6.5391-14.613-14.613-14.613-8.0625 0-14.613 6.5391-14.613 14.613 0 50.711-41.262 91.977-91.988 91.977-49.332 0.011719-89.719-39.039-91.883-87.852zm335.85 570.75h-215.85v-374h215.85zm29.223 0v-388.61c0-8.0625-6.5391-14.613-14.613-14.613h-245.07c-8.0625 0-14.613 6.5391-14.613 14.613v388.61h-32.5v-458.45c10.676 3.0859 21.949 4.7734 33.613 4.7734 45.977 0 86.051-25.738 106.59-63.551 20.539 37.812 60.613 63.551 106.59 63.551 45.977 0 86.051-25.738 106.59-63.551 20.539 37.812 60.613 63.551 106.59 63.551 45.977 0 86.051-25.738 106.59-63.551 20.539 37.812 60.613 63.551 106.59 63.551 45.977 0 86.051-25.738 106.59-63.551 20.539 37.812 60.613 63.551 106.59 63.551 11.664 0 22.926-1.6875 33.613-4.7734v302.8c-10.477-2.3359-21.336-3.6133-32.5-3.6367l0.011719-229.32c0-8.0625-6.5391-14.613-14.613-14.613h-509.56c-8.0625 0-14.613 6.5391-14.613 14.613v312.35c0 8.0625 6.5391 14.613 14.613 14.613h383.24c-6.1367 16.375-9.5117 34.086-9.5117 52.574 0 3.0508 0.125 6.0742 0.30078 9.0742zm418.36-90.875h-214.23v-32.289c0-13.039 13.324-24.062 29.086-24.062h156.05c15.762 0 29.086 11.012 29.086 24.062zm36.137 0h-6.9141v-32.289c0-29.375-26.148-53.289-58.301-53.289l-156.06 0.003907c-32.148 0-58.301 23.898-58.301 53.289v32.289h-103.86v-283.12h480.38v217.54c-40.473 7.9375-75.16 32.188-96.938 65.586zm125.9 202.8c-66.711 0-121-54.273-121-121 0-66.727 54.273-121 121-121 66.727 0 121 54.273 121 121 0 66.727-54.289 121-121 121zm-35.027-155.49c0 9.3867 14.977 19.887 35.012 19.887 36.023 0 64.238 21.562 64.238 49.102 0 23.676-20.875 42.926-49.625 47.863v16.086c0 8.0625-6.5391 14.613-14.613 14.613-8.0742 0-14.613-6.5391-14.613-14.613l0.003906-16.086c-28.75-4.9375-49.625-24.188-49.625-47.863 0-8.0625 6.5391-14.613 14.613-14.613 8.0742 0 14.613 6.5391 14.613 14.613 0 9.3867 14.977 19.887 35.012 19.887 20.039 0 35.012-10.5 35.012-19.887s-14.977-19.887-35.012-19.887c-36.023 0-64.238-21.574-64.238-49.102 0-23.676 20.875-42.926 49.625-47.863v-16.086c0-8.0625 6.5391-14.613 14.613-14.613 8.0742 0 14.613 6.5391 14.613 14.613v16.086c28.75 4.9375 49.625 24.188 49.625 47.863 0 8.0625-6.5391 14.613-14.613 14.613-8.0742 0-14.613-6.5391-14.613-14.613 0-9.3867-14.977-19.887-35.012-19.887-3.1016 0-6.0742 0.27344-8.8984 0.73828-1.5508 0.625-3.2266 0.98828-4.9883 1.0391-12.68 3.3867-21.129 11.062-21.129 18.109zm-234.12-309.69c-45.477 0-82.461 36.988-82.461 82.461 0 45.461 36.988 82.461 82.461 82.461 45.461 0 82.461-36.988 82.461-82.461 0.003906-45.473-36.996-82.461-82.461-82.461zm0 135.7c-29.363 0-53.238-23.887-53.238-53.238 0-29.363 23.887-53.238 53.238-53.238 29.363 0 53.238 23.887 53.238 53.238 0 29.348-23.875 53.238-53.238 53.238z"/>
</svg>
